<svg width="21" height="21" viewBox="0 0 21 21" fill="none" xmlns="http://www.w3.org/2000/svg">
<path opacity="0.2" d="M20.9431 10.5003C20.9431 16.2687 16.2669 20.945 10.4985 20.945C4.73004 20.945 0.053833 16.2687 0.053833 10.5003C0.053833 4.73188 4.73004 0.0556641 10.4985 0.0556641C16.2668 0.0556641 20.9431 4.73188 20.9431 10.5003Z" fill="black"/>
<g opacity="0.8">
<path d="M10.4651 5.65393L10.4006 5.87321V12.236L10.4651 12.3004L13.4187 10.5546L10.4651 5.65393Z" fill="white"/>
<path d="M10.4652 5.65393L7.5116 10.5546L10.4652 12.3005V9.21213V5.65393Z" fill="white"/>
<path d="M10.4652 13.2614L10.4288 13.3057V15.5723L10.4652 15.6785L13.4205 11.5164L10.4652 13.2614Z" fill="white"/>
<path d="M10.4652 15.6785V13.2614L7.5116 11.5164L10.4652 15.6785Z" fill="white"/>
<path d="M10.4651 12.3004L13.4186 10.5546L10.4651 9.21216V12.3004Z" fill="white"/>
<path d="M7.5116 10.5546L10.4651 12.3005V9.21216L7.5116 10.5546Z" fill="white"/>
</g>
</svg>
