<svg width="18" height="18" viewBox="0 0 18 18" fill="none" xmlns="http://www.w3.org/2000/svg">
<path d="M9 16.5001C13.1421 16.5001 16.5 13.1423 16.5 9.00012C16.5 4.85799 13.1421 1.50012 9 1.50012C4.85786 1.50012 1.5 4.85799 1.5 9.00012C1.5 13.1423 4.85786 16.5001 9 16.5001Z" stroke="#A29BC8" stroke-linecap="round" stroke-linejoin="round"/>
<path d="M5.99995 2.25012H6.74995C5.28745 6.63012 5.28745 11.3701 6.74995 15.7501H5.99995" stroke="#A29BC8" stroke-linecap="round" stroke-linejoin="round"/>
<path d="M11.25 2.25012C12.7125 6.63012 12.7125 11.3701 11.25 15.7501" stroke="#A29BC8" stroke-linecap="round" stroke-linejoin="round"/>
<path d="M2.25 12.0001V11.2501C6.63 12.7126 11.37 12.7126 15.75 11.2501V12.0001" stroke="#A29BC8" stroke-linecap="round" stroke-linejoin="round"/>
<path d="M2.25 6.75013C6.63 5.28763 11.37 5.28763 15.75 6.75013" stroke="#A29BC8" stroke-linecap="round" stroke-linejoin="round"/>
</svg>
