<svg width="21" height="21" viewBox="0 0 21 21" fill="none" xmlns="http://www.w3.org/2000/svg">
<path d="M10.4999 17.7693C14.5146 17.7693 17.7692 14.5148 17.7692 10.5001C17.7692 6.48538 14.5146 3.23083 10.4999 3.23083C6.48526 3.23083 3.23071 6.48538 3.23071 10.5001C3.23071 14.5148 6.48526 17.7693 10.4999 17.7693Z" fill="white"/>
<path d="M16.559 14.3951H13.6901V10.5001L10.4999 13.6478L7.30969 10.5001V14.3951H4.4408H4.349C5.63426 16.4106 7.90642 17.7693 10.4999 17.7693C13.0934 17.7693 15.3655 16.4332 16.6508 14.3951H16.559Z" fill="#4C4C4C"/>
<path d="M5.79902 12.7368V6.74734L10.4999 11.3982L15.2009 6.74734V12.7368H17.3793C17.6316 12.0108 17.7692 11.2394 17.7692 10.4227C17.7692 6.45241 14.5129 3.23083 10.4999 3.23083C6.48696 3.23083 3.23071 6.45241 3.23071 10.4227C3.23071 11.2394 3.3683 12.0108 3.62055 12.7368H5.79902Z" fill="#FF6B01"/>
<path opacity="0.1" d="M20.9431 10.5003C20.9431 16.2687 16.2669 20.945 10.4985 20.945C4.73004 20.945 0.053833 16.2687 0.053833 10.5003C0.053833 4.73188 4.73004 0.0556641 10.4985 0.0556641C16.2668 0.0556641 20.9431 4.73188 20.9431 10.5003Z" fill="#BEBEBE"/>
</svg>
