<svg width="12" height="13" viewBox="0 0 12 13" fill="none" xmlns="http://www.w3.org/2000/svg">
<g id="vuesax/linear/programming-arrow">
<g id="programming-arrow">
<path id="Vector" d="M9.5 8.5V3.75C9.5 3.2 9.05 2.75 8.5 2.75H6.25" stroke="url(#paint0_linear_68_87)" stroke-linecap="round" stroke-linejoin="round"/>
<path id="Vector_2" d="M7.5 1.5L6 2.75L7.5 4" stroke="url(#paint1_linear_68_87)" stroke-width="1.5" stroke-linecap="round" stroke-linejoin="round"/>
<path id="Vector_3" d="M2.5 5V8.5" stroke="url(#paint2_linear_68_87)" stroke-linecap="round" stroke-linejoin="round"/>
<path id="Vector_4" d="M2.625 4.75C3.52246 4.75 4.25 4.02246 4.25 3.125C4.25 2.22754 3.52246 1.5 2.625 1.5C1.72754 1.5 1 2.22754 1 3.125C1 4.02246 1.72754 4.75 2.625 4.75Z" stroke="url(#paint3_linear_68_87)" stroke-linecap="round" stroke-linejoin="round"/>
<path id="Vector_5" d="M2.5 11.5C3.32843 11.5 4 10.8284 4 10C4 9.17157 3.32843 8.5 2.5 8.5C1.67157 8.5 1 9.17157 1 10C1 10.8284 1.67157 11.5 2.5 11.5Z" stroke="url(#paint4_linear_68_87)" stroke-linecap="round" stroke-linejoin="round"/>
<path id="Vector_6" d="M9.5 11.5C10.3284 11.5 11 10.8284 11 10C11 9.17157 10.3284 8.5 9.5 8.5C8.67157 8.5 8 9.17157 8 10C8 10.8284 8.67157 11.5 9.5 11.5Z" stroke="url(#paint5_linear_68_87)" stroke-linecap="round" stroke-linejoin="round"/>
</g>
</g>
<defs>
<linearGradient id="paint0_linear_68_87" x1="1.5" y1="1.5" x2="11.5" y2="11.5" gradientUnits="userSpaceOnUse">
<stop stop-color="#6B05FD"/>
<stop offset="1" stop-color="#E401A9"/>
</linearGradient>
<linearGradient id="paint1_linear_68_87" x1="2" y1="1" x2="11.5" y2="11.5" gradientUnits="userSpaceOnUse">
<stop stop-color="#6B05FD"/>
<stop offset="1" stop-color="#E401A9"/>
</linearGradient>
<linearGradient id="paint2_linear_68_87" x1="0.5" y1="2" x2="11" y2="11.5" gradientUnits="userSpaceOnUse">
<stop stop-color="#6B05FD"/>
<stop offset="1" stop-color="#E401A9"/>
</linearGradient>
<linearGradient id="paint3_linear_68_87" x1="0.5" y1="1" x2="11.5" y2="11.5" gradientUnits="userSpaceOnUse">
<stop stop-color="#6B05FD"/>
<stop offset="1" stop-color="#E401A9"/>
</linearGradient>
<linearGradient id="paint4_linear_68_87" x1="4.84288e-08" y1="2" x2="11.5" y2="12" gradientUnits="userSpaceOnUse">
<stop stop-color="#6B05FD"/>
<stop offset="1" stop-color="#E401A9"/>
</linearGradient>
<linearGradient id="paint5_linear_68_87" x1="1.5" y1="1.5" x2="12.5" y2="12.5" gradientUnits="userSpaceOnUse">
<stop stop-color="#6B05FD"/>
<stop offset="1" stop-color="#E401A9"/>
</linearGradient>
</defs>
</svg>
