<svg width="39" height="23" viewBox="0 0 39 23" fill="none" xmlns="http://www.w3.org/2000/svg">
<path opacity="0.2" d="M20.9431 11.5003C20.9431 17.2687 16.2669 21.945 10.4985 21.945C4.73004 21.945 0.053833 17.2687 0.053833 11.5003C0.053833 5.73188 4.73004 1.05566 10.4985 1.05566C16.2668 1.05566 20.9431 5.73188 20.9431 11.5003" fill="#A41E00"/>
<path d="M9.42741 11.3174V9.49015H6.9491V7.88849H13.8745V9.51271H11.3962V11.3174H9.42741Z" fill="#F11F12"/>
<path fill-rule="evenodd" clip-rule="evenodd" d="M5.88367 11.5204C5.88367 10.9113 7.87558 10.415 10.3539 10.415C12.8322 10.415 14.8241 10.9113 14.8241 11.5204C14.8241 12.1295 12.8322 12.6258 10.3539 12.6258C7.87558 12.6258 5.88367 12.1295 5.88367 11.5204ZM14.4535 11.5204C14.2914 11.2948 12.948 10.5955 10.3539 10.5955C7.75977 10.5955 6.41639 11.2723 6.25426 11.5204C6.41639 11.746 7.75977 12.0844 10.3539 12.0844C12.9712 12.0844 14.2914 11.746 14.4535 11.5204Z" fill="#F11F12"/>
<path d="M11.3961 11.8813V10.6181C11.0719 10.5955 10.7245 10.5729 10.377 10.5729C10.0528 10.5729 9.75166 10.5729 9.45056 10.5955V11.8588C9.7285 11.8588 10.0528 11.8813 10.377 11.8813C10.7245 11.9039 11.0719 11.9039 11.3961 11.8813Z" fill="#F11F12"/>
<path d="M10.3538 12.6257C10.0296 12.6257 9.72847 12.6257 9.42737 12.6032V15.9644H11.373V12.5806C11.0487 12.6032 10.7013 12.6257 10.3538 12.6257Z" fill="#F11F12"/>
<path opacity="0.2" d="M27.5 22.0001C33.299 22.0001 38 17.2991 38 11.5001C38 5.70107 33.299 1.00006 27.5 1.00006C21.701 1.00006 17 5.70107 17 11.5001C17 17.2991 21.701 22.0001 27.5 22.0001Z" fill="#A41E00" stroke="#22222D"/>
<path fill-rule="evenodd" clip-rule="evenodd" d="M31.5766 9.20578L31.3677 9.05764C31.0422 8.8269 30.7029 8.58633 30.3697 8.3473L30.3697 8.34729C30.3607 8.34048 30.3517 8.33367 30.3405 8.32685C30.2958 8.29279 30.2443 8.25645 30.1816 8.23601L30.1771 8.23374C29.1879 7.99122 28.1838 7.74302 27.2057 7.50123L26.9257 7.43203L25.4757 7.07431L24.0258 6.71662L24.0258 6.71662C24.0012 6.70981 23.9766 6.70299 23.9497 6.69618C23.8624 6.6712 23.7616 6.64394 23.6541 6.65757C23.6228 6.66211 23.5959 6.67347 23.5713 6.68937L23.5444 6.71208C23.5019 6.75296 23.4795 6.80519 23.4683 6.83472L23.4615 6.85289V6.95736L23.466 6.97326C23.9257 8.2796 24.3942 9.60008 24.8554 10.8999L25.3089 12.1787L25.7274 13.3575L25.7276 13.3581C26.0608 14.2967 26.3986 15.2481 26.7309 16.1873C26.76 16.2781 26.8428 16.3372 26.9458 16.3462H26.9682C27.0645 16.3462 27.1496 16.2985 27.1922 16.2213L28.9656 13.5982C29.1815 13.2793 29.3975 12.9599 29.6134 12.6405L29.6139 12.6397C29.83 12.3201 30.0461 12.0004 30.2622 11.6813C30.3505 11.5509 30.4389 11.4199 30.5272 11.2889L30.5273 11.2887L30.5274 11.2886L30.5275 11.2884L30.5276 11.2883L30.5277 11.2881L30.5278 11.2879C30.6162 11.1569 30.7045 11.0259 30.7929 10.8955L30.8293 10.8416C31.1089 10.427 31.3964 10.0008 31.6819 9.58506L31.6975 9.56235V9.5351C31.7043 9.45561 31.7065 9.29209 31.5766 9.20578ZM29.4986 10.1619C29.3432 10.2441 29.1865 10.3273 29.0289 10.4109C28.7642 10.5514 28.497 10.6932 28.2289 10.8342L28.9768 10.0211C29.2479 9.72443 29.5292 9.41913 29.8073 9.11722L29.9308 8.98321L29.9375 8.9764C29.9643 8.94007 29.9979 8.90602 30.0337 8.86969L30.0337 8.86968L30.0338 8.86966L30.0338 8.86966L30.0338 8.86966L30.0524 8.85106L30.0524 8.85105C30.0716 8.83204 30.0914 8.81239 30.1099 8.79017C30.2756 8.90599 30.4436 9.02409 30.6048 9.13992C30.7212 9.22395 30.8399 9.30799 30.9608 9.39202C30.4682 9.64639 29.9755 9.90757 29.4986 10.1619ZM27.4474 11.1226C27.7766 10.7661 28.108 10.4049 28.4282 10.0529L28.7105 9.74522C29.042 9.3837 29.3796 9.0156 29.7158 8.65163L27.7664 8.17126L25.8172 7.69094C25.5866 7.63189 25.3515 7.57511 25.1253 7.5206C24.8678 7.45928 24.6058 7.39569 24.3461 7.32755L24.3859 7.37609C24.415 7.4113 24.4438 7.44611 24.4715 7.48199C24.4916 7.50675 24.5117 7.53198 24.5318 7.5573L24.5318 7.55731L24.5318 7.55731C24.5746 7.61095 24.6177 7.66501 24.6618 7.71592L24.664 7.71819L25.5261 8.76973C26.1576 9.53964 26.8092 10.3368 27.4474 11.1226ZM27.3019 14.4794L27.3226 14.2808L27.3226 14.2807C27.341 14.1059 27.3596 13.9292 27.3758 13.7549L27.3959 13.5608C27.4094 13.4311 27.4228 13.3014 27.4362 13.1757L27.4504 13.0397C27.4775 12.7802 27.5052 12.5145 27.528 12.2537L27.5348 12.1991C27.5571 12.0038 27.5795 11.8017 27.593 11.5996C27.6176 11.5859 27.6445 11.5723 27.6736 11.561L27.6988 11.5493C27.724 11.5378 27.7492 11.5263 27.7744 11.511L27.7745 11.5109L27.7746 11.5109C28.2918 11.2361 28.809 10.9613 29.3284 10.6888C29.8457 10.4163 30.3764 10.1347 30.9026 9.85533C30.4234 10.5594 29.942 11.2702 29.4762 11.9629L29.2133 12.3518C28.8963 12.8209 28.5743 13.2975 28.2536 13.7685C28.1624 13.9046 28.0691 14.0422 27.9764 14.1788C27.9053 14.2837 27.8345 14.3881 27.7654 14.4907C27.5863 14.7542 27.4026 15.0244 27.2235 15.2947C27.2459 15.0222 27.2728 14.7474 27.3019 14.4794ZM24.1507 7.78128C24.1607 7.80878 24.1706 7.83629 24.1803 7.86354C24.6864 9.29285 25.1925 10.7201 25.6986 12.1474C25.9516 12.8611 26.2046 13.5747 26.4577 14.2886L26.6973 14.9631C26.7286 15.0562 26.7622 15.1516 26.7958 15.2425C26.8001 15.2547 26.8048 15.2673 26.8095 15.2801C26.817 15.3005 26.8247 15.3214 26.8316 15.3424C26.8408 15.2558 26.8495 15.1692 26.8581 15.0831C26.8685 14.9794 26.8788 14.8763 26.8899 14.7746C26.894 14.7353 26.8981 14.6959 26.9022 14.6564C26.9454 14.244 26.9897 13.8215 27.0264 13.4028L27.0287 13.3869C27.0287 13.3869 27.0645 13.0735 27.0802 12.935C27.0827 12.9123 27.0854 12.8895 27.0881 12.8666C27.0971 12.7886 27.1063 12.7096 27.1115 12.6307V12.6284C27.1295 12.4671 27.1451 12.3082 27.1608 12.1492C27.1707 12.0578 27.1803 11.9649 27.1899 11.8713C27.2042 11.7323 27.2186 11.5917 27.2347 11.4519C27.1735 11.3831 27.1159 11.3118 27.0593 11.2417C27.0393 11.217 27.0194 11.1924 26.9996 11.168C26.9414 11.0954 26.8809 11.0204 26.8204 10.95C26.6159 10.6987 26.4114 10.4494 26.2069 10.2001C26.1046 10.0754 26.0024 9.95072 25.9001 9.8258C25.3067 9.10358 24.6976 8.35865 24.093 7.61826C24.1109 7.67125 24.1308 7.72627 24.1507 7.78128Z" fill="#F11F12"/>
</svg>
