<svg width="21" height="21" viewBox="0 0 21 21" fill="none" xmlns="http://www.w3.org/2000/svg">
<path opacity="0.2" d="M20.9431 10.5002C20.9431 16.2687 16.2669 20.945 10.4985 20.945C4.73004 20.945 0.053833 16.2687 0.053833 10.5002C0.053833 4.73184 4.73004 0.0556335 10.4985 0.0556335C16.2668 0.0556335 20.9431 4.73184 20.9431 10.5002Z" fill="#00A478"/>
<path d="M9.42741 10.3174V8.49015H6.9491V6.88849H13.8745V8.51271H11.3962V10.3174H9.42741Z" fill="#12F1B5"/>
<path fill-rule="evenodd" clip-rule="evenodd" d="M5.88367 10.5204C5.88367 9.91133 7.87558 9.41504 10.3539 9.41504C12.8322 9.41504 14.8241 9.91133 14.8241 10.5204C14.8241 11.1295 12.8322 11.6258 10.3539 11.6258C7.87558 11.6258 5.88367 11.1295 5.88367 10.5204ZM14.4535 10.5204C14.2914 10.2948 12.948 9.59551 10.3539 9.59551C7.75977 9.59551 6.41639 10.2723 6.25426 10.5204C6.41639 10.746 7.75977 11.0844 10.3539 11.0844C12.9712 11.0844 14.2914 10.746 14.4535 10.5204Z" fill="#12F1B5"/>
<path d="M11.3961 10.8814V9.61808C11.0719 9.59553 10.7245 9.57297 10.377 9.57297C10.0528 9.57297 9.75166 9.57297 9.45056 9.59553V10.8588C9.7285 10.8588 10.0528 10.8814 10.377 10.8814C10.7245 10.9039 11.0719 10.9039 11.3961 10.8814Z" fill="#12F1B5"/>
<path d="M10.3538 11.6258C10.0296 11.6258 9.72847 11.6258 9.42737 11.6032V14.9645H11.373V11.5807C11.0487 11.6032 10.7013 11.6258 10.3538 11.6258Z" fill="#12F1B5"/>
</svg>
